<svg width="410" height="192" viewBox="0 0 410 192" fill="none" xmlns="http://www.w3.org/2000/svg">
<g clip-path="url(#clip0_201_48)">
<path d="M152 40V112H112V152H40V40H152ZM152 24H40C31.2 24 24 31.2 24 40V152C24 160.8 31.2 168 40 168H120L168 120V40C168 31.2 160.8 24 152 24ZM96 112H56V96H96V112ZM136 80H56V64H136V80Z" fill="#4681f4"/>
</g>
<path d="M243.406 78.9375C243.406 80.9583 243.104 82.75 242.5 84.3125C241.896 85.875 241.062 87.2396 240 88.4062C238.958 89.5729 237.729 90.5625 236.312 91.375C234.896 92.1875 233.375 92.8542 231.75 93.375C230.146 93.875 228.479 94.25 226.75 94.5C225.021 94.7292 223.323 94.8542 221.656 94.875V109.438H207.094C207.094 104.667 207.104 99.9167 207.125 95.1875C207.146 90.4583 207.177 85.6875 207.219 80.875C207.26 78.3333 207.271 75.7917 207.25 73.25C207.229 70.7083 207.281 68.1458 207.406 65.5625C210.073 64.7708 212.74 64.1771 215.406 63.7812C218.073 63.3854 220.823 63.1875 223.656 63.1875C225.26 63.1875 226.865 63.3229 228.469 63.5938C230.073 63.8438 231.604 64.25 233.062 64.8125C234.542 65.375 235.906 66.0833 237.156 66.9375C238.427 67.7708 239.521 68.7708 240.438 69.9375C241.354 71.1042 242.073 72.4375 242.594 73.9375C243.135 75.4167 243.406 77.0833 243.406 78.9375ZM229.531 80C229.531 78.6458 229.115 77.5938 228.281 76.8438C227.469 76.0729 226.406 75.6875 225.094 75.6875C224.656 75.6875 224.198 75.7292 223.719 75.8125C223.26 75.875 222.823 75.9583 222.406 76.0625L222.031 85.1875C222.323 85.2292 222.604 85.25 222.875 85.25C223.146 85.25 223.427 85.25 223.719 85.25C224.469 85.25 225.188 85.125 225.875 84.875C226.583 84.625 227.208 84.2708 227.75 83.8125C228.292 83.3333 228.719 82.7812 229.031 82.1562C229.365 81.5104 229.531 80.7917 229.531 80ZM283.75 85.0625C283.75 86.9583 283.531 88.7917 283.094 90.5625C282.656 92.3125 282.021 93.9583 281.188 95.5C280.375 97.0417 279.375 98.4583 278.188 99.75C277.021 101.021 275.698 102.115 274.219 103.031C272.76 103.948 271.167 104.667 269.438 105.188C267.708 105.688 265.875 105.938 263.938 105.938C262.062 105.938 260.271 105.698 258.562 105.219C256.875 104.74 255.292 104.073 253.812 103.219C252.333 102.344 250.99 101.302 249.781 100.094C248.594 98.8646 247.573 97.5104 246.719 96.0312C245.885 94.5312 245.229 92.9271 244.75 91.2188C244.292 89.5104 244.062 87.7292 244.062 85.875C244.062 84.0625 244.281 82.2917 244.719 80.5625C245.156 78.8125 245.781 77.1667 246.594 75.625C247.427 74.0833 248.427 72.6667 249.594 71.375C250.76 70.0833 252.062 68.9688 253.5 68.0312C254.958 67.0938 256.531 66.3646 258.219 65.8438C259.906 65.3229 261.688 65.0625 263.562 65.0625C266.583 65.0625 269.333 65.5312 271.812 66.4688C274.312 67.4062 276.438 68.75 278.188 70.5C279.958 72.2292 281.323 74.3333 282.281 76.8125C283.26 79.2708 283.75 82.0208 283.75 85.0625ZM269.875 85.875C269.875 84.9792 269.74 84.1146 269.469 83.2812C269.219 82.4271 268.844 81.6771 268.344 81.0312C267.844 80.3646 267.219 79.8333 266.469 79.4375C265.74 79.0208 264.896 78.8125 263.938 78.8125C262.958 78.8125 262.083 78.9896 261.312 79.3438C260.542 79.6979 259.875 80.1875 259.312 80.8125C258.771 81.4167 258.354 82.1354 258.062 82.9688C257.771 83.7812 257.625 84.6458 257.625 85.5625C257.625 86.4375 257.75 87.3125 258 88.1875C258.25 89.0625 258.625 89.8542 259.125 90.5625C259.625 91.2708 260.24 91.8438 260.969 92.2812C261.719 92.7188 262.583 92.9375 263.562 92.9375C264.542 92.9375 265.417 92.75 266.188 92.375C266.979 91.9792 267.646 91.4583 268.188 90.8125C268.729 90.1458 269.146 89.3854 269.438 88.5312C269.729 87.6771 269.875 86.7917 269.875 85.875ZM317.969 93C317.969 95.8542 317.469 98.3229 316.469 100.406C315.49 102.469 314.135 104.177 312.406 105.531C310.698 106.865 308.688 107.854 306.375 108.5C304.083 109.125 301.615 109.438 298.969 109.438C297.948 109.438 296.823 109.302 295.594 109.031C294.385 108.76 293.156 108.427 291.906 108.031C290.656 107.615 289.448 107.177 288.281 106.719C287.135 106.24 286.115 105.792 285.219 105.375L286.594 93.125C288.365 94.1875 290.323 95 292.469 95.5625C294.635 96.1042 296.76 96.375 298.844 96.375C299.24 96.375 299.719 96.3646 300.281 96.3438C300.844 96.3021 301.375 96.2083 301.875 96.0625C302.396 95.8958 302.833 95.6562 303.188 95.3438C303.542 95.0312 303.719 94.5833 303.719 94C303.719 93.6042 303.594 93.2708 303.344 93C303.094 92.7083 302.771 92.4792 302.375 92.3125C301.979 92.125 301.531 91.9896 301.031 91.9062C300.531 91.8021 300.042 91.7292 299.562 91.6875C299.083 91.6458 298.635 91.625 298.219 91.625C297.802 91.625 297.469 91.625 297.219 91.625C295.427 91.625 293.792 91.3438 292.312 90.7812C290.854 90.2188 289.594 89.4271 288.531 88.4062C287.49 87.3646 286.677 86.1146 286.094 84.6562C285.51 83.1771 285.219 81.5417 285.219 79.75C285.219 77.2917 285.708 75.0938 286.688 73.1562C287.688 71.1979 289.01 69.5417 290.656 68.1875C292.323 66.8125 294.229 65.7604 296.375 65.0312C298.521 64.3021 300.74 63.9375 303.031 63.9375C304.052 63.9375 305.104 63.9792 306.188 64.0625C307.271 64.125 308.344 64.25 309.406 64.4375C310.49 64.625 311.542 64.8646 312.562 65.1562C313.583 65.4479 314.552 65.8125 315.469 66.25L314.281 78.9375C312.865 78.4583 311.375 78.0625 309.812 77.75C308.271 77.4167 306.76 77.25 305.281 77.25C305.01 77.25 304.656 77.2604 304.219 77.2812C303.802 77.2812 303.354 77.3125 302.875 77.375C302.417 77.4167 301.948 77.4896 301.469 77.5938C300.99 77.6979 300.562 77.8438 300.188 78.0312C299.812 78.1979 299.51 78.4271 299.281 78.7188C299.052 79.0104 298.948 79.3542 298.969 79.75C298.99 80.2083 299.156 80.5625 299.469 80.8125C299.802 81.0625 300.219 81.25 300.719 81.375C301.24 81.4792 301.802 81.5312 302.406 81.5312C303.031 81.5312 303.646 81.5208 304.25 81.5C304.854 81.4583 305.417 81.4271 305.938 81.4062C306.458 81.3646 306.885 81.3542 307.219 81.375C308.885 81.4792 310.385 81.8333 311.719 82.4375C313.052 83.0417 314.177 83.8438 315.094 84.8438C316.031 85.8438 316.74 87.0417 317.219 88.4375C317.719 89.8125 317.969 91.3333 317.969 93ZM352.344 64.9375L352.031 78.1875L342.719 78.5625L341.594 107.562L328.406 108.25L327.219 79.25L317.906 79.75L318.281 65L352.344 64.9375ZM386.156 93C386.156 95.8542 385.656 98.3229 384.656 100.406C383.677 102.469 382.323 104.177 380.594 105.531C378.885 106.865 376.875 107.854 374.562 108.5C372.271 109.125 369.802 109.438 367.156 109.438C366.135 109.438 365.01 109.302 363.781 109.031C362.573 108.76 361.344 108.427 360.094 108.031C358.844 107.615 357.635 107.177 356.469 106.719C355.323 106.24 354.302 105.792 353.406 105.375L354.781 93.125C356.552 94.1875 358.51 95 360.656 95.5625C362.823 96.1042 364.948 96.375 367.031 96.375C367.427 96.375 367.906 96.3646 368.469 96.3438C369.031 96.3021 369.562 96.2083 370.062 96.0625C370.583 95.8958 371.021 95.6562 371.375 95.3438C371.729 95.0312 371.906 94.5833 371.906 94C371.906 93.6042 371.781 93.2708 371.531 93C371.281 92.7083 370.958 92.4792 370.562 92.3125C370.167 92.125 369.719 91.9896 369.219 91.9062C368.719 91.8021 368.229 91.7292 367.75 91.6875C367.271 91.6458 366.823 91.625 366.406 91.625C365.99 91.625 365.656 91.625 365.406 91.625C363.615 91.625 361.979 91.3438 360.5 90.7812C359.042 90.2188 357.781 89.4271 356.719 88.4062C355.677 87.3646 354.865 86.1146 354.281 84.6562C353.698 83.1771 353.406 81.5417 353.406 79.75C353.406 77.2917 353.896 75.0938 354.875 73.1562C355.875 71.1979 357.198 69.5417 358.844 68.1875C360.51 66.8125 362.417 65.7604 364.562 65.0312C366.708 64.3021 368.927 63.9375 371.219 63.9375C372.24 63.9375 373.292 63.9792 374.375 64.0625C375.458 64.125 376.531 64.25 377.594 64.4375C378.677 64.625 379.729 64.8646 380.75 65.1562C381.771 65.4479 382.74 65.8125 383.656 66.25L382.469 78.9375C381.052 78.4583 379.562 78.0625 378 77.75C376.458 77.4167 374.948 77.25 373.469 77.25C373.198 77.25 372.844 77.2604 372.406 77.2812C371.99 77.2812 371.542 77.3125 371.062 77.375C370.604 77.4167 370.135 77.4896 369.656 77.5938C369.177 77.6979 368.75 77.8438 368.375 78.0312C368 78.1979 367.698 78.4271 367.469 78.7188C367.24 79.0104 367.135 79.3542 367.156 79.75C367.177 80.2083 367.344 80.5625 367.656 80.8125C367.99 81.0625 368.406 81.25 368.906 81.375C369.427 81.4792 369.99 81.5312 370.594 81.5312C371.219 81.5312 371.833 81.5208 372.438 81.5C373.042 81.4583 373.604 81.4271 374.125 81.4062C374.646 81.3646 375.073 81.3542 375.406 81.375C377.073 81.4792 378.573 81.8333 379.906 82.4375C381.24 83.0417 382.365 83.8438 383.281 84.8438C384.219 85.8438 384.927 87.0417 385.406 88.4375C385.906 89.8125 386.156 91.3333 386.156 93Z" fill="#4681f4"/>
<defs>
<clipPath id="clip0_201_48">
<rect width="192" height="192" fill="white"/>
</clipPath>
</defs>
</svg>
